HIERARCHY
ROOT hip
{
	OFFSET 0.000000 0.000000 0.000000
	CHANNELS 6 Xposition Yposition Zposition Zrotation Yrotation Xrotation 
	JOINT lhipjoint
	{
		OFFSET 0.000000 0.000000 0.000000
		CHANNELS 3 Zrotation Yrotation Xrotation
		JOINT lfemur
		{
			OFFSET 1.363060 -1.794630 0.839290
			CHANNELS 3 Zrotation Yrotation Xrotation
			JOINT ltibia
			{
				OFFSET 2.448110 -6.726130 0.000000
				CHANNELS 3 Zrotation Yrotation Xrotation
				JOINT lfoot
				{
					OFFSET 2.562200 -7.039590 0.000000
					CHANNELS 3 Zrotation Yrotation Xrotation
					JOINT ltoes
					{
						OFFSET 0.157640 -0.433110 2.322550
						CHANNELS 3 Zrotation Yrotation Xrotation
						End Site
						{
							OFFSET 0.000000 0.000000 0.000000
						}
					}
				}
			}
		}
	}
	JOINT rhipjoint
	{
		OFFSET 0.000000 0.000000 0.000000
		CHANNELS 3 Zrotation Yrotation Xrotation
		JOINT rfemur
		{
			OFFSET -1.305520 -1.794630 0.839290
			CHANNELS 3 Zrotation Yrotation Xrotation
			JOINT rtibia
			{
				OFFSET -2.542530 -6.985550 0.000000
				CHANNELS 3 Zrotation Yrotation Xrotation
				JOINT rfoot
				{
					OFFSET -2.568260 -7.056230 0.000000
					CHANNELS 3 Zrotation Yrotation Xrotation
					JOINT rtoes
					{
						OFFSET -0.164730 -0.452590 2.363150
						CHANNELS 3 Zrotation Yrotation Xrotation
						End Site
						{
							OFFSET 0.000000 0.000000 0.000000
						}
					}
				}
			}
		}
	}
	JOINT lowerback
	{
		OFFSET 0.000000 0.000000 0.000000
		CHANNELS 3 Zrotation Yrotation Xrotation
		JOINT upperback
		{
			OFFSET 0.028270 2.035590 -0.193380
			CHANNELS 3 Zrotation Yrotation Xrotation
			JOINT thorax
			{
				OFFSET 0.056720 2.048850 -0.042750
				CHANNELS 3 Zrotation Yrotation Xrotation
				JOINT lowerneck
				{
					OFFSET 0.000000 0.000000 0.000000
					CHANNELS 3 Zrotation Yrotation Xrotation
					JOINT upperneck
					{
						OFFSET -0.054170 1.746240 0.172020
						CHANNELS 3 Zrotation Yrotation Xrotation
						JOINT head
						{
							OFFSET 0.104070 1.761360 -0.123970
							CHANNELS 3 Zrotation Yrotation Xrotation
							End Site
							{
								OFFSET 0.000000 0.000000 0.000000
							}
						}
					}
				}
				JOINT lclavicle
				{
					OFFSET 0.000000 0.000000 0.000000
					CHANNELS 3 Zrotation Yrotation Xrotation
					JOINT lhumerus
					{
						OFFSET 3.362410 1.200890 -0.311210
						CHANNELS 3 Zrotation Yrotation Xrotation
						JOINT lradius
						{
							OFFSET 4.983000 -0.000000 -0.000000
							CHANNELS 3 Zrotation Yrotation Xrotation
							JOINT lwrist
							{
								OFFSET 3.483560 -0.000000 -0.000000
								CHANNELS 3 Zrotation Yrotation Xrotation
								JOINT lhand
								{
									OFFSET 0.000000 0.000000 0.000000
									CHANNELS 3 Zrotation Yrotation Xrotation
									JOINT lfingers
									{
										OFFSET 0.715260 -0.000000 -0.000000
										CHANNELS 3 Zrotation Yrotation Xrotation
										End Site
										{
											OFFSET 0.000000 0.000000 0.000000
										}
									}
								}
								JOINT lthumb
								{
									OFFSET 0.000000 0.000000 0.000000
									CHANNELS 3 Zrotation Yrotation Xrotation
									End Site
									{
										OFFSET 0.000000 0.000000 0.000000
									}
								}
							}
						}
					}
				}
				JOINT rclavicle
				{
					OFFSET 0.000000 0.000000 0.000000
					CHANNELS 3 Zrotation Yrotation Xrotation
					JOINT rhumerus
					{
						OFFSET -3.136600 1.374050 -0.404650
						CHANNELS 3 Zrotation Yrotation Xrotation
						JOINT rradius
						{
							OFFSET -5.241900 -0.000000 -0.000000
							CHANNELS 3 Zrotation Yrotation Xrotation
							JOINT rwrist
							{
								OFFSET -3.444170 -0.000000 -0.000000
								CHANNELS 3 Zrotation Yrotation Xrotation
								JOINT rhand
								{
									OFFSET 0.000000 0.000000 0.000000
									CHANNELS 3 Zrotation Yrotation Xrotation
									JOINT rfingers
									{
										OFFSET -0.622530 -0.000000 -0.000000
										CHANNELS 3 Zrotation Yrotation Xrotation
										End Site
										{
											OFFSET 0.000000 0.000000 0.000000
										}
									}
								}
								JOINT rthumb
								{
									OFFSET 0.000000 0.000000 0.000000
									CHANNELS 3 Zrotation Yrotation Xrotation
									End Site
									{
										OFFSET 0.000000 0.000000 0.000000
									}
								}
							}
						}
					}
				}
			}
		}
	}
}
MOTION
Frames: 5
Frame Time: 0.008333
-0.178519 16.756038 5.518774 -0.496000 25.661186 -8.185213 8.416569 1.509926 -3.436879 -23.329707 4.745652 19.906620 3.232405 11.602544 38.055240 5.823362 -19.070804 18.075622 0.009700 0.635000 1.744900 -13.900858 -3.570366 0.397566 30.980262 17.699014 -20.734513 -4.229559 -11.779495 32.584405 4.106379 -18.612742 2.629074 -0.168800 2.647100 -7.297600 2.950367 -3.353818 11.067535 0.864448 -4.702582 -2.524740 -1.626395 -1.352462 -0.427848 -3.477363 -0.688098 -5.006872 2.878433 -0.280075 15.999942 0.613300 -0.099300 5.088400 1.769646 -5.016040 2.764309 -82.658836 -0.825884 7.385233 2.699698 -30.713562 -2.956754 0.444534 2.190698 23.009969 12.829613 -2.483290 -1.110800 -7.125000 0.000000 0.000000 -10.004000 25.136800 4.877900 -4.415582 7.403553 3.944389 86.540618 -11.049303 0.983506 4.185526 20.001222 -1.138499 -1.634728 -1.138233 39.251097 -12.203166 9.378840 -2.329600 7.125000 0.000000 0.000000 10.832500 -18.500800 6.960700 
-0.150657 16.742107 5.689333 -1.005265 25.658353 -8.674463 8.365385 1.528436 -3.306261 -22.640867 4.182323 18.596953 3.865053 12.406398 41.053132 5.757977 -18.376418 20.965700 0.000100 0.049700 0.136500 -13.856174 -3.610179 0.250720 31.762836 16.756766 -20.507496 -4.366990 -12.019987 33.506434 3.912713 -18.014765 3.182783 -0.176100 2.703400 -7.454100 3.552445 -3.388996 11.403647 0.883238 -4.653514 -2.506489 -1.657956 -1.330405 -0.462307 -3.415505 -0.726138 -4.970150 2.873707 -0.328814 16.116326 0.603300 -0.121600 5.170400 1.815664 -5.034754 2.762751 -82.925915 -0.349807 7.011668 2.340851 -30.426285 -2.875741 0.444440 2.168702 23.306448 12.632575 -2.427905 -1.075400 -7.125000 0.000000 0.000000 -10.154800 25.220900 4.933500 -4.365349 7.422775 3.967347 86.279223 -10.975900 1.681778 4.005439 20.221212 -1.153690 -1.636704 -1.145239 38.951620 -12.269859 9.556881 -2.379100 7.125000 0.000000 0.000000 10.784600 -18.313800 6.974300 
-0.122993 16.727379 5.850637 -1.450595 25.660484 -9.135464 8.327673 1.545626 -3.176601 -22.092696 3.546503 17.257806 4.571407 13.192834 44.069435 5.686178 -17.167277 23.834778 0.016300 -0.823700 -2.263800 -13.809951 -3.649411 0.109674 32.448473 15.831535 -20.300930 -4.511778 -12.256647 34.431678 3.724480 -17.416954 3.628330 -0.175800 2.700600 -7.446300 4.127341 -3.435493 11.827091 0.897596 -4.614311 -2.493011 -1.704858 -1.311035 -0.528592 -3.372567 -0.742880 -5.002567 2.891229 -0.352186 16.236492 0.618100 -0.136800 5.305300 1.858891 -5.065432 2.745236 -83.204602 0.024565 6.473474 1.920721 -30.026588 -2.777489 0.448624 2.128404 23.797887 12.386740 -2.511659 -1.063900 -7.125000 0.000000 0.000000 -10.336600 25.182600 5.034000 -4.326314 7.449545 3.977458 85.984357 -10.864361 2.542592 3.796013 20.493675 -1.175004 -1.645582 -1.158655 38.465322 -12.362568 9.775639 -2.442900 7.125000 0.000000 0.000000 10.722900 -18.076700 6.990100 
-0.095529 16.713747 6.007762 -1.911931 25.681940 -9.611133 8.299166 1.560014 -3.050882 -21.585538 2.845743 15.932644 5.337276 13.946632 47.061446 5.634606 -15.759003 26.708860 0.072300 -1.734800 -4.773200 -13.774582 -3.681059 -0.032200 33.131008 14.960338 -20.028199 -4.653871 -12.474967 35.314194 3.570349 -16.879210 3.854338 -0.161800 2.591700 -7.144100 4.718150 -3.507672 12.284921 0.913921 -4.597893 -2.481544 -1.767758 -1.304916 -0.624732 -3.305438 -0.753165 -5.004564 2.900885 -0.369065 16.340291 0.619900 -0.145800 5.423300 1.902213 -5.097010 2.728315 -83.450389 0.385442 5.943358 1.504214 -29.608837 -2.671867 0.443010 2.081740 24.410365 11.985666 -2.614032 -1.041000 -7.125000 0.000000 0.000000 -10.625800 25.139800 5.190300 -4.292553 7.479281 3.986340 85.688096 -10.679640 3.216527 3.644077 20.675219 -1.193404 -1.656692 -1.159270 38.119647 -12.460792 10.001074 -2.507200 7.125000 0.000000 0.000000 10.661400 -17.839700 7.005200 
-0.068761 16.700412 6.163096 -2.356466 25.721981 -10.065074 8.283125 1.571869 -2.933952 -21.127634 2.091686 14.633026 6.159335 14.662039 50.006431 5.606210 -14.244742 29.450742 0.135100 -2.369000 -6.526700 -13.747206 -3.708753 -0.176258 33.794504 14.119492 -19.706775 -4.789484 -12.669650 36.131345 3.439645 -16.387029 3.943176 -0.148900 2.486800 -6.853000 5.290381 -3.577550 12.723014 0.928003 -4.577594 -2.468303 -1.854532 -1.297020 -0.715273 -3.204396 -0.777011 -4.972259 2.909670 -0.407179 16.436592 0.613000 -0.161200 5.517700 1.942074 -5.115674 2.717351 -83.673651 0.716409 5.386246 1.111450 -29.189590 -2.567761 0.430591 2.029998 25.105353 11.504507 -2.755957 -1.017700 -7.125000 0.000000 0.000000 -10.967200 25.066900 5.381900 -4.259477 7.499253 3.998310 85.387543 -10.440678 3.863294 3.528350 20.826510 -1.210101 -1.669185 -1.156085 37.717888 -12.549324 10.240639 -2.571200 7.125000 0.000000 0.000000 10.610700 -17.592100 7.029600 
